<?xml version="1.0" encoding="utf-8"?>
<!-- Generator: Adobe Illustrator 16.0.0, SVG Export Plug-In . SVG Version: 6.00 Build 0)  -->
<!DOCTYPE svg PUBLIC "-//W3C//DTD SVG 1.1//EN" "http://www.w3.org/Graphics/SVG/1.1/DTD/svg11.dtd">
<svg version="1.1" id="Capa_1" xmlns="http://www.w3.org/2000/svg" xmlns:xlink="http://www.w3.org/1999/xlink" x="0px" y="0px"
	 width="42px" height="46px" viewBox="0 0 42 46" enable-background="new 0 0 42 46" xml:space="preserve">
<defs>
	<filter id="Adobe_OpacityMaskFilter" filterUnits="userSpaceOnUse" x="0" y="0" width="41.49" height="45.576">
		<feColorMatrix  type="matrix" values="1 0 0 0 0  0 1 0 0 0  0 0 1 0 0  0 0 0 1 0"/>
	</filter>
</defs>
<mask maskUnits="userSpaceOnUse" x="0" y="0" width="41.49" height="45.576" id="mask-2">
	<g filter="url(#Adobe_OpacityMaskFilter)">
		<polygon id="path-1" fill="#FFFFFF" points="0,0 41.49,0 41.49,45.576 0,45.576 		"/>
	</g>
</mask>
<path id="Fill-1" mask="url(#mask-2)" fill="#9B9B9B" d="M39.592,24.901c-0.169,0.599-0.719,0.901-1.636,0.901h-3.68v-0.613
	c0-1.395-1.136-2.53-2.53-2.53H9.053c-1.395,0-2.53,1.135-2.53,2.53v0.613H2.996c-0.68,0-1.041-0.289-1.135-0.911
	c-0.143-0.929,0.431-2.197,1.41-2.503l17.1-9.255c4.006,2.009,16.544,8.31,18.176,9.314C39.336,22.933,39.824,24.079,39.592,24.901
	L39.592,24.901z M32.896,25.803v1.84v15.404c0,0.634-0.516,1.15-1.15,1.15H9.053c-0.634,0-1.15-0.517-1.15-1.15V27.643v-1.84v-0.613
	c0-0.634,0.516-1.15,1.15-1.15h22.693c0.635,0,1.15,0.517,1.15,1.15V25.803z M39.512,20.88c-1.793-1.103-15.43-7.946-18.812-9.64
	c0.333-0.423,1.138-1.145,3.063-2c2.132-0.946,3-3.171,2.163-5.535c-0.805-2.269-3.129-4.282-5.842-3.553
	c-1.808,0.487-3.166,1.699-3.728,3.327c-0.434,1.259-0.312,2.563,0.317,3.404c0.305,0.405,0.882,0.49,1.288,0.183
	c0.407-0.304,0.489-0.881,0.184-1.288c-0.216-0.288-0.303-0.964-0.05-1.699c0.211-0.611,0.812-1.705,2.467-2.15
	c1.654-0.445,3.101,0.901,3.629,2.391c0.195,0.551,0.688,2.412-1.176,3.24c-4.472,1.987-4.468,3.814-4.36,4.327l0.016,0.076
	l-16.042,8.7c-1.926,0.66-2.844,2.835-2.588,4.508c0.233,1.525,1.365,2.473,2.954,2.473h3.526v15.404
	c0,1.395,1.135,2.529,2.53,2.529h22.693c1.395,0,2.53-1.135,2.53-2.529V27.643h3.68c2.503,0,3.216-1.566,3.407-2.24
	C41.82,23.787,41.007,21.799,39.512,20.88L39.512,20.88z"/>
<rect  id="Fill-1" fill="#9B9B9B" width="42" height="46"/>
</svg>
